<svg xmlns="http://www.w3.org/2000/svg" height="682.667" viewBox="0 0 512 512" width="682.667" xmlns:v="https://vecta.io/nano"><path d="M256 0C114.613 0 0 114.613 0 256s114.613 256 256 256 256-114.613 256-256C511.84 114.68 397.32.16 256 0zm0 494.934C124.04 494.934 17.066 387.96 17.066 256S124.04 17.066 256 17.066 494.934 124.04 494.934 256C494.785 387.898 387.898 494.785 256 494.934zM256 51.2a8.54 8.54 0 0 0 8.535-8.531v-8.535A8.54 8.54 0 0 0 256 25.602a8.54 8.54 0 0 0-8.535 8.531v8.535A8.54 8.54 0 0 0 256 51.199zm0 0"/><path d="M256 460.8a8.54 8.54 0 0 0-8.535 8.531v8.535a8.54 8.54 0 0 0 8.535 8.531 8.54 8.54 0 0 0 8.535-8.531v-8.535A8.54 8.54 0 0 0 256 460.8zM218.945 54.44a9.04 9.04 0 0 0 1.488-.125 8.52 8.52 0 0 0 5.508-3.508c1.3-1.852 1.8-4.145 1.418-6.375l-1.48-8.4c-.527-3-2.617-5.496-5.48-6.54a8.53 8.53 0 0 0-8.406 1.473c-2.336 1.96-3.453 5.016-2.926 8.02l1.48 8.406a8.54 8.54 0 0 0 8.398 7.06zm0 0"/><path d="M291.566 457.684a8.52 8.52 0 0 0-5.508 3.508 8.53 8.53 0 0 0-1.418 6.375l1.48 8.4a8.54 8.54 0 0 0 8.395 7.06c.5-.004.996-.043 1.488-.13 2.23-.4 4.2-1.652 5.512-3.504a8.54 8.54 0 0 0 1.418-6.379l-1.48-8.406c-.816-4.645-5.242-7.746-9.887-6.934zM188.133 44.6a8.52 8.52 0 0 0-6.539-5.477 8.54 8.54 0 0 0-8.02 2.922c-1.957 2.34-2.52 5.543-1.473 8.406l2.918 8.016a8.53 8.53 0 0 0 6.543 5.48c3.004.527 6.06-.586 8.016-2.926a8.54 8.54 0 0 0 1.477-8.402zm0 0"/><path d="M336.98 453.543c-1.613-4.43-6.512-6.707-10.94-5.094s-6.707 6.516-5.1 10.94l2.918 8.02a8.55 8.55 0 0 0 10.94 5.1c4.424-1.607 6.7-6.516 5.094-10.94zM141.94 75.52a8.54 8.54 0 0 0 14.78 0c1.523-2.64 1.527-5.9.004-8.53l-4.27-7.395c-2.355-4.082-7.574-5.48-11.656-3.125a8.54 8.54 0 0 0-3.125 11.66zm0 0"/><path d="M370.06 436.48a8.54 8.54 0 0 0-14.78 0c-1.523 2.64-1.527 5.9-.004 8.53l4.27 7.395c2.355 4.082 7.574 5.48 11.656 3.125a8.54 8.54 0 0 0 3.125-11.66zM112.332 98.06a8.54 8.54 0 0 0 11.941.957c3.574-2.996 4.078-8.305 1.137-11.922l-5.484-6.54a8.53 8.53 0 0 0-11.953-.973 8.54 8.54 0 0 0-1.121 11.941zm0 0"/><path d="M399.668 413.94a8.54 8.54 0 0 0-11.941-.957c-3.574 2.996-4.078 8.305-1.137 11.922l5.484 6.535a8.53 8.53 0 0 0 11.953.973c3.578-3.004 4.078-8.324 1.12-11.937zM87.094 125.4a8.53 8.53 0 0 0 14.004-5.004c.52-3.04-.64-6.12-3.03-8.066l-6.535-5.488a8.54 8.54 0 0 0-8.477-1.61 8.53 8.53 0 0 0-5.547 6.605c-.52 3.042.648 6.13 3.047 8.07zm0 0"/><path d="M424.906 386.6a8.53 8.53 0 0 0-14.004 5.004c-.52 3.04.64 6.12 3.03 8.066l6.535 5.488a8.54 8.54 0 0 0 8.477 1.61c2.91-1.035 5.027-3.562 5.547-6.605s-.648-6.13-3.047-8.07zM59.6 152.457l7.4 4.27c4.082 2.355 9.3.957 11.656-3.125a8.54 8.54 0 0 0-3.125-11.66l-7.387-4.266a8.54 8.54 0 0 0-8.535 0c-2.64 1.523-4.266 4.344-4.266 7.4a8.53 8.53 0 0 0 4.266 7.391zm0 0"/><path d="M452.4 359.543l-7.4-4.27c-2.64-1.523-5.895-1.523-8.53.004a8.55 8.55 0 0 0-4.27 7.39c0 3.05 1.63 5.867 4.27 7.4l7.387 4.266a8.54 8.54 0 0 0 8.535 0c2.64-1.523 4.266-4.344 4.266-7.4a8.53 8.53 0 0 0-4.266-7.391zm-407.802-171.4l8.02 2.918c2.887 1.137 6.164.617 8.555-1.355a8.53 8.53 0 0 0 2.965-8.141 8.54 8.54 0 0 0-5.684-6.535l-8.02-2.918a8.54 8.54 0 0 0-8.547 1.363c-2.4 1.973-3.523 5.086-2.96 8.133a8.54 8.54 0 0 0 5.672 6.54zm0 0"/><path d="M467.402 323.867l-8.02-2.918c-2.887-1.137-6.164-.617-8.555 1.355a8.53 8.53 0 0 0-2.965 8.141 8.54 8.54 0 0 0 5.684 6.535l8.02 2.918a8.54 8.54 0 0 0 8.547-1.363c2.4-1.973 3.523-5.086 2.96-8.133a8.54 8.54 0 0 0-5.672-6.54zM36.02 225.88l8.406 1.48c.492.1.992.137 1.492.137a8.53 8.53 0 0 0 1.473-16.934l-8.402-1.484c-3.043-.63-6.2.445-8.2 2.805s-2.598 5.637-1.508 8.547a8.54 8.54 0 0 0 6.75 5.45zm0 0"/><path d="M475.98 286.12l-8.406-1.48c-3.04-.625-6.18.453-8.2 2.813a8.54 8.54 0 0 0-1.508 8.535c1.1 2.906 3.672 4.996 6.742 5.45l8.402 1.484a8.31 8.31 0 0 0 1.492.133 8.53 8.53 0 0 0 8.469-7.793c.383-4.398-2.648-8.36-6.992-9.14zM42.668 264.535A8.54 8.54 0 0 0 51.199 256a8.54 8.54 0 0 0-8.531-8.535h-8.535A8.54 8.54 0 0 0 25.602 256a8.54 8.54 0 0 0 8.531 8.535zm0 0"/><path d="M469.332 247.465a8.54 8.54 0 0 0-8.531 8.535 8.54 8.54 0 0 0 8.531 8.535h8.535a8.54 8.54 0 0 0 8.531-8.535 8.54 8.54 0 0 0-8.531-8.535zM54.313 291.56c-.387-2.234-1.648-4.22-3.504-5.516a8.49 8.49 0 0 0-6.383-1.402l-8.406 1.484a8.53 8.53 0 0 0 1.477 16.933 8.31 8.31 0 0 0 1.492-.133l8.402-1.484c4.64-.82 7.738-5.242 6.922-9.883zm0 0"/><path d="M457.688 220.44c.72 4.074 4.258 7.047 8.395 7.05a8.31 8.31 0 0 0 1.492-.133l8.406-1.484c3.074-.453 5.66-2.54 6.75-5.45s.516-6.184-1.508-8.543a8.53 8.53 0 0 0-8.211-2.809l-8.402 1.484c-4.64.82-7.738 5.242-6.922 9.883zM63.555 326.05c-.773-2.13-2.363-3.86-4.414-4.816a8.53 8.53 0 0 0-6.523-.285l-8.023 2.918c-2.926.992-5.1 3.496-5.648 6.54a8.54 8.54 0 0 0 11.488 9.492l8.02-2.914a8.54 8.54 0 0 0 5.102-10.934zm0 0"/><path d="M448.445 185.95c.773 2.13 2.36 3.863 4.4 4.816a8.54 8.54 0 0 0 6.527.285l8.023-2.918c2.926-.992 5.1-3.496 5.648-6.54a8.54 8.54 0 0 0-11.488-9.492l-8.02 2.914a8.54 8.54 0 0 0-5.102 10.934zM78.633 358.398c-1.13-1.96-2.992-3.395-5.176-3.98a8.53 8.53 0 0 0-6.477.855l-7.4 4.27c-4.082 2.355-5.48 7.574-3.125 11.656a8.54 8.54 0 0 0 11.66 3.125l7.387-4.266c1.96-1.133 3.4-2.996 3.977-5.184a8.53 8.53 0 0 0-.855-6.477zm0 0"/><path d="M433.367 153.602a8.54 8.54 0 0 0 11.652 3.125l7.4-4.27c4.082-2.355 5.48-7.574 3.125-11.656a8.54 8.54 0 0 0-11.66-3.125l-7.387 4.266c-1.96 1.133-3.4 2.996-3.977 5.184a8.53 8.53 0 0 0 .855 6.477zM87.094 386.6l-6.54 5.492a8.54 8.54 0 0 0 2.508 14.664 8.54 8.54 0 0 0 8.469-1.598l6.535-5.488c2.4-1.945 3.55-5.027 3.03-8.066a8.53 8.53 0 0 0-14.004-5.004zm0 0"/><path d="M413.934 112.34c-2.4 1.945-3.55 5.027-3.03 8.066a8.53 8.53 0 0 0 14.004 5.004l6.54-5.492a8.54 8.54 0 0 0-2.508-14.664 8.54 8.54 0 0 0-8.469 1.598zm-301.602 301.6l-5.48 6.535a8.53 8.53 0 0 0-1.484 8.402c1.043 2.862 3.535 4.957 6.54 5.484a8.53 8.53 0 0 0 8.02-2.918l5.484-6.535c2.94-3.617 2.438-8.926-1.137-11.922a8.54 8.54 0 0 0-11.941.957zm0 0"/><path d="M393.125 101.1c2.523.004 4.922-1.113 6.543-3.05l5.48-6.535a8.53 8.53 0 0 0-1.051-12.02c-3.6-3.03-8.992-2.56-12.023 1.05L386.6 87.1c-2.13 2.54-2.594 6.082-1.195 9.086a8.54 8.54 0 0 0 7.73 4.93zM153.602 433.36a8.54 8.54 0 0 0-11.66 3.125l-4.266 7.4a8.54 8.54 0 0 0 3.125 11.66c4.082 2.355 9.3.957 11.656-3.125l4.27-7.395a8.54 8.54 0 0 0-3.125-11.656zm0 0"/><path d="M358.398 78.64c4.082 2.355 9.3.957 11.66-3.12l4.266-7.4a8.54 8.54 0 0 0-3.125-11.66c-4.082-2.355-9.3-.957-11.656 3.125L355.273 67c-2.352 4.082-.953 9.297 3.125 11.652zm-172.44 369.8a8.55 8.55 0 0 0-10.937 5.094l-2.918 8.02c-1.617 4.43.664 9.328 5.1 10.94a8.53 8.53 0 0 0 10.94-5.1l2.922-8.02c.777-2.125.676-4.473-.28-6.527s-2.687-3.645-4.816-4.418zm0 0"/><path d="M326.043 63.55a8.53 8.53 0 0 0 10.938-5.094l2.922-8.016c1.617-4.426-.664-9.324-5.094-10.94a8.53 8.53 0 0 0-10.94 5.1l-2.918 8.02a8.53 8.53 0 0 0 .277 6.523 8.54 8.54 0 0 0 4.816 4.418zm-105.61 394.134c-4.645-.812-9.066 2.293-9.883 6.934l-1.48 8.406c-.816 4.645 2.285 9.066 6.926 9.883.492.086.988.125 1.488.13 4.14-.008 7.68-2.98 8.395-7.06l1.48-8.4a8.53 8.53 0 0 0-1.418-6.375 8.52 8.52 0 0 0-5.508-3.508zm0 0"/><path d="M291.566 54.316a9.04 9.04 0 0 0 1.488.125c4.14-.008 7.68-2.98 8.395-7.06l1.484-8.406c.527-3.004-.6-6.06-2.926-8.02a8.53 8.53 0 0 0-8.406-1.473c-2.863 1.043-4.953 3.54-5.48 6.54l-1.477 8.4a8.53 8.53 0 0 0 6.922 9.883zM262.06 262.06a8.44 8.44 0 0 0 1.793-9.301 7.69 7.69 0 0 0-4.609-4.609 8.52 8.52 0 0 0-9.301 1.793c-.773.816-1.38 1.77-1.793 2.816-1.535 3.754-.215 8.074 3.156 10.332a8.54 8.54 0 0 0 10.754-1.03zm0 0"/><path d="M256 68.266c-32.988 0-59.734 26.746-59.734 59.734s26.746 59.734 59.734 59.734 59.734-26.746 59.734-59.734c-.04-32.973-26.762-59.695-59.734-59.734zm0 102.402c-23.562 0-42.668-19.105-42.668-42.668S232.438 85.332 256 85.332s42.668 19.105 42.668 42.668c-.027 23.55-19.117 42.64-42.668 42.668zm17.066-51.203h-8.53v-8.53a8.54 8.54 0 0 0-8.535-8.535 8.54 8.54 0 0 0-8.535 8.535v8.53h-8.53a8.54 8.54 0 0 0-8.535 8.535 8.54 8.54 0 0 0 8.535 8.535h8.53v8.53a8.54 8.54 0 0 0 8.535 8.535 8.54 8.54 0 0 0 8.535-8.535v-8.53h8.53a8.54 8.54 0 0 0 8.535-8.535 8.54 8.54 0 0 0-8.535-8.535zM256 324.266c-32.988 0-59.734 26.746-59.734 59.734s26.746 59.734 59.734 59.734 59.734-26.746 59.734-59.734c-.04-32.973-26.762-59.695-59.734-59.734zm0 102.402c-23.562 0-42.668-19.105-42.668-42.668s19.105-42.668 42.668-42.668 42.668 19.105 42.668 42.668c-.027 23.55-19.117 42.64-42.668 42.668zM443.734 256c0-32.988-26.746-59.734-59.734-59.734S324.266 223.012 324.266 256s26.746 59.734 59.734 59.734c32.973-.04 59.695-26.762 59.734-59.734zM384 298.668c-23.562 0-42.668-19.105-42.668-42.668s19.105-42.668 42.668-42.668 42.668 19.105 42.668 42.668c-.027 23.55-19.117 42.64-42.668 42.668zm0 0"/><path d="M128 196.266c-32.988 0-59.734 26.746-59.734 59.734S95.012 315.734 128 315.734s59.734-26.746 59.734-59.734c-.04-32.973-26.762-59.695-59.734-59.734zm0 102.402c-23.562 0-42.668-19.105-42.668-42.668s19.105-42.668 42.668-42.668 42.668 19.105 42.668 42.668c-.027 23.55-19.117 42.64-42.668 42.668zm145.066 76.797h-34.133a8.54 8.54 0 0 0-8.535 8.535 8.54 8.54 0 0 0 8.535 8.535h34.133a8.54 8.54 0 0 0 8.535-8.535 8.54 8.54 0 0 0-8.535-8.535zm0 0"/><path d="M390.06 249.94a8.86 8.86 0 0 0-2.816-1.793c-3.18-1.297-6.828-.594-9.3 1.793-.773.816-1.38 1.77-1.793 2.816a8.46 8.46 0 0 0 1.793 9.301c.828.754 1.78 1.36 2.816 1.793 2.625 1.125 5.637.848 8.016-.738a8.45 8.45 0 0 0 3.762-7.113c.027-1.12-.207-2.23-.684-3.242-.434-1.035-1.04-1.984-1.793-2.816zM128 247.465a8.54 8.54 0 0 0 8.535-8.531V230.4a8.54 8.54 0 0 0-8.535-8.531 8.54 8.54 0 0 0-8.535 8.531v8.535a8.54 8.54 0 0 0 8.535 8.531zm0 0"/><path d="M145.066 247.465a8.54 8.54 0 0 0-8.531 8.535 8.54 8.54 0 0 1-8.535 8.535 8.54 8.54 0 0 1-8.535-8.535 8.54 8.54 0 0 0-8.531-8.535 8.54 8.54 0 0 0-8.535 8.535 25.57 25.57 0 0 0 17.066 24.027v1.574a8.54 8.54 0 0 0 8.535 8.531 8.54 8.54 0 0 0 8.535-8.531v-1.574A25.57 25.57 0 0 0 153.602 256a8.54 8.54 0 0 0-8.535-8.535zm0 0"/></svg>